<svg width="238" height="46" viewBox="0 0 238 46" fill="none" xmlns="http://www.w3.org/2000/svg">
<path d="M104.099 46C101.03 46 98.2678 45.638 95.8126 44.9139C93.3574 44.1472 91.0118 42.8269 88.7759 40.9528C88.2059 40.4843 87.7675 39.9519 87.4606 39.3556C87.1537 38.7593 87.0002 38.163 87.0002 37.5667C87.0002 36.587 87.351 35.7352 88.0525 35.0111C88.7978 34.2444 89.7185 33.8611 90.8146 33.8611C91.6476 33.8611 92.3929 34.1167 93.0505 34.6278C94.7166 35.9482 96.3607 36.9491 97.9828 37.6306C99.6489 38.312 101.688 38.6528 104.099 38.6528C105.721 38.6528 107.212 38.4185 108.571 37.95C109.93 37.4389 111.026 36.7787 111.859 35.9694C112.692 35.1176 113.109 34.1593 113.109 33.0944C113.109 31.8167 112.714 30.7306 111.925 29.8361C111.136 28.9417 109.93 28.1963 108.308 27.6C106.686 26.9611 104.625 26.4713 102.126 26.1306C99.7585 25.7898 97.6759 25.2787 95.8784 24.5972C94.0808 23.8731 92.5683 22.9787 91.3407 21.9139C90.1569 20.8065 89.2581 19.5287 88.6443 18.0806C88.0305 16.5898 87.7236 14.9287 87.7236 13.0972C87.7236 10.3287 88.4471 7.96481 89.8939 6.00555C91.3845 4.04629 93.3794 2.55555 95.8784 1.53333C98.3774 0.511111 101.14 0 104.165 0C107.014 0 109.645 0.425925 112.056 1.27778C114.512 2.08704 116.506 3.13056 118.041 4.40833C119.312 5.38796 119.948 6.51667 119.948 7.79445C119.948 8.73148 119.575 9.58333 118.83 10.35C118.085 11.1167 117.208 11.5 116.199 11.5C115.542 11.5 114.95 11.3083 114.424 10.925C113.722 10.3287 112.78 9.775 111.596 9.26389C110.412 8.71019 109.163 8.26296 107.847 7.92222C106.532 7.53889 105.305 7.34722 104.165 7.34722C102.279 7.34722 100.679 7.58148 99.3639 8.05C98.0924 8.51852 97.1279 9.15741 96.4703 9.96667C95.8126 10.7759 95.4838 11.713 95.4838 12.7778C95.4838 14.0556 95.8565 15.1204 96.6018 15.9722C97.391 16.7815 98.5089 17.4417 99.9558 17.9528C101.403 18.4213 103.134 18.8472 105.151 19.2306C107.782 19.6991 110.083 20.2528 112.056 20.8917C114.073 21.5306 115.739 22.3611 117.054 23.3833C118.37 24.363 119.356 25.6194 120.014 27.1528C120.671 28.6435 121 30.475 121 32.6472C121 35.4157 120.211 37.8009 118.633 39.8028C117.054 41.8046 114.972 43.338 112.385 44.4028C109.842 45.4676 107.08 46 104.099 46Z" fill="#202020"/>
<path d="M142.099 46C139.03 46 136.268 45.638 133.813 44.9139C131.357 44.1472 129.012 42.8269 126.776 40.9528C126.206 40.4843 125.767 39.9519 125.461 39.3556C125.154 38.7593 125 38.163 125 37.5667C125 36.587 125.351 35.7352 126.052 35.0111C126.798 34.2444 127.718 33.8611 128.815 33.8611C129.648 33.8611 130.393 34.1167 131.051 34.6278C132.717 35.9482 134.361 36.9491 135.983 37.6306C137.649 38.312 139.688 38.6528 142.099 38.6528C143.721 38.6528 145.212 38.4185 146.571 37.95C147.93 37.4389 149.026 36.7787 149.859 35.9694C150.692 35.1176 151.109 34.1593 151.109 33.0944C151.109 31.8167 150.714 30.7306 149.925 29.8361C149.136 28.9417 147.93 28.1963 146.308 27.6C144.686 26.9611 142.625 26.4713 140.126 26.1306C137.758 25.7898 135.676 25.2787 133.878 24.5972C132.081 23.8731 130.568 22.9787 129.341 21.9139C128.157 20.8065 127.258 19.5287 126.644 18.0806C126.031 16.5898 125.724 14.9287 125.724 13.0972C125.724 10.3287 126.447 7.96481 127.894 6.00555C129.385 4.04629 131.379 2.55555 133.878 1.53333C136.377 0.511111 139.14 0 142.165 0C145.014 0 147.645 0.425925 150.056 1.27778C152.512 2.08704 154.506 3.13056 156.041 4.40833C157.312 5.38796 157.948 6.51667 157.948 7.79445C157.948 8.73148 157.575 9.58333 156.83 10.35C156.085 11.1167 155.208 11.5 154.199 11.5C153.542 11.5 152.95 11.3083 152.424 10.925C151.722 10.3287 150.78 9.775 149.596 9.26389C148.412 8.71019 147.163 8.26296 145.847 7.92222C144.532 7.53889 143.305 7.34722 142.165 7.34722C140.279 7.34722 138.679 7.58148 137.364 8.05C136.092 8.51852 135.128 9.15741 134.47 9.96667C133.813 10.7759 133.484 11.713 133.484 12.7778C133.484 14.0556 133.856 15.1204 134.602 15.9722C135.391 16.7815 136.509 17.4417 137.956 17.9528C139.403 18.4213 141.134 18.8472 143.151 19.2306C145.782 19.6991 148.083 20.2528 150.056 20.8917C152.073 21.5306 153.739 22.3611 155.054 23.3833C156.37 24.363 157.356 25.6194 158.014 27.1528C158.671 28.6435 159 30.475 159 32.6472C159 35.4157 158.211 37.8009 156.633 39.8028C155.054 41.8046 152.972 43.338 150.385 44.4028C147.842 45.4676 145.08 46 142.099 46Z" fill="#202020"/>
<path fill-rule="evenodd" clip-rule="evenodd" d="M214.769 8H223.231H234.5H235.477C235.967 7.84289 236.406 7.6048 236.792 7.28572C237.597 6.61524 238 5.73524 238 4.64572C238 3.55619 237.597 2.67619 236.792 2.00572C236.031 1.33524 235.069 1 233.905 1H204.096C202.932 1 201.947 1.33524 201.142 2.00572C200.381 2.63429 200 3.49334 200 4.58286C200 5.67238 200.381 6.55238 201.142 7.22286C201.563 7.5737 202.034 7.83274 202.553 8H203.5H214.769Z" fill="#202020"/>
<rect x="215" y="5" width="8" height="41" rx="4" fill="#202020"/>
<path fill-rule="evenodd" clip-rule="evenodd" d="M190.996 1H169.005C167.867 1 166.904 1.38571 166.116 2.15714C165.372 2.88572 165 3.80714 165 4.92143V42.0786C165 43.1929 165.372 44.1357 166.116 44.9071C166.904 45.6357 167.867 46 169.005 46H190.996C192.134 46 193.075 45.6571 193.819 44.9714C194.606 44.2857 195 43.4071 195 42.3357C195 41.35 194.606 40.4929 193.819 39.7643C193.508 39.4423 193.163 39.1876 192.784 39H173.206H173.2V38.6071V26V19.8301V19.3214V18H173.206V8.39286H190.996C192.134 8.39286 193.075 8.07143 193.819 7.42857C194.606 6.74286 195 5.86429 195 4.79286C195 3.67857 194.606 2.77857 193.819 2.09286C193.075 1.36429 192.134 1 190.996 1Z" fill="#202020"/>
<rect x="166" y="27" width="7" height="27" rx="3.5" transform="rotate(-90 166 27)" fill="#202020"/>
<rect x="55" y="27" width="7" height="27" rx="3.5" transform="rotate(-90 55 27)" fill="#0AADB7"/>
<path fill-rule="evenodd" clip-rule="evenodd" d="M8 8.3145H17.428C19.8865 8.3145 21.9545 8.82081 23.632 9.83342C25.3094 10.846 26.5707 12.4245 27.4158 14.5689C28.2737 16.7133 28.7027 19.4756 28.7027 22.856C28.7027 26.2661 28.2737 29.0508 27.4158 31.2101C26.5707 33.3544 25.303 34.9404 23.6128 35.9679C21.9353 36.9805 19.8673 37.4868 17.4088 37.4868H3.8733C3.794 37.4808 3.71405 37.4778 3.63354 37.4778C1.65748 37.4778 0.090432 39.3024 0.090432 41.6005C0.090432 43.8985 1.69234 45.7615 3.66841 45.7615C3.71584 45.7615 3.76306 45.7604 3.81005 45.7583V45.7739H17.7545C21.7497 45.7739 25.1814 44.858 28.0496 43.0264C30.9307 41.1948 33.1396 38.5664 34.6762 35.1414C36.2256 31.7164 37.0002 27.6212 37.0002 22.856C37.0002 18.1056 36.2256 14.0254 34.6762 10.6152C33.1396 7.20509 30.9435 4.59164 28.0881 2.77489C25.2326 0.943247 21.8265 0.0274243 17.8698 0.0274243H3.81005V0.0293438C3.72938 0.0231598 3.64801 0.0200195 3.56601 0.0200195C2.14766 0.0200195 0.928361 0.959568 0.353082 2.3397C0.128459 2.73049 0 3.18358 0 3.66667V23C0 25.2091 1.79086 27 4 27C6.20914 27 8 25.2091 8 23V8.3145Z" fill="#202020"/>
<path fill-rule="evenodd" clip-rule="evenodd" d="M81.9887 19.4179C81.9963 19.4998 82.0001 19.5828 82.0001 19.6667V42.0001C82.0001 44.2092 80.2093 46.0001 78.0001 46.0001C75.791 46.0001 74.0001 44.2092 74.0001 42.0001L74.0001 33.3017L74.0001 22.3334L74.0001 19.0001H73.9893C73.7275 12.8807 68.6837 8.00004 62.5 8.00004C56.3162 8.00004 51.2724 12.8807 51.0106 19H51.0001L51.0001 19.0001L51.0001 19.4475C51 19.465 51 19.4825 51 19.5C51 19.5177 51 19.5354 51.0001 19.553L51.0001 21.4194V22.3334V33.4489V42.0001C51.0001 44.2092 49.2093 46.0001 47.0001 46.0001C44.791 46.0001 43.0001 44.2092 43.0001 42.0001V24.3911V19.6667L43.0001 19.5001C42.9545 15.5437 43.92 12.2055 45.4438 9.33225C46.9549 6.45919 49.1507 4.23774 52.0312 2.6679C54.9115 1.08526 58.3703 0.270718 62.4074 0.224254C66.4572 0.177644 69.9465 0.912219 72.8751 2.428C75.8036 3.93098 78.0628 6.11397 79.6526 8.97696C81.1652 11.689 81.883 15.6032 81.9887 19.4179Z" fill="#0AADB7"/>
</svg>
